<svg xmlns="http://www.w3.org/2000/svg" xmlns:xlink="http://www.w3.org/1999/xlink" width="277.205" height="140.17" viewBox="0 0 277.205 140.17">
  <defs>
    <clipPath id="clip-path">
      <rect id="Rectangle_1306" data-name="Rectangle 1306" width="277.205" height="140.17" fill="none"/>
    </clipPath>
  </defs>
  <g id="Group_5008" data-name="Group 5008" clip-path="url(#clip-path)">
    <path id="Path_32648" data-name="Path 32648" d="M450.857,257.3c-.087.033-.206.184-.359.455a1.531,1.531,0,0,0-.229.54v7.227a1.743,1.743,0,0,0,.587.994H448.3a1.2,1.2,0,0,0,.375-.4,1.286,1.286,0,0,0,.223-.606v-3.541h-4.915v3.553a1.025,1.025,0,0,0,.211.582,1.587,1.587,0,0,0,.376.412H442.01a1.374,1.374,0,0,0,.376-.4,1.184,1.184,0,0,0,.211-.606v-7.252a1.2,1.2,0,0,0-.229-.57q-.229-.364-.358-.388h2.558a1.284,1.284,0,0,0-.376.376,1.111,1.111,0,0,0-.211.619v2.668H448.9v-2.7a1.227,1.227,0,0,0-.2-.558q-.2-.352-.394-.4Z" transform="translate(-292.46 -170.248)" fill="#e9990d"/>
    <path id="Path_32649" data-name="Path 32649" d="M477.8,261.751a1.064,1.064,0,0,0-.314.315.93.93,0,0,0-.177.518v6.051a.858.858,0,0,0,.157.472,1.307,1.307,0,0,0,.334.361h-2.142a1.069,1.069,0,0,0,.3-.336.988.988,0,0,0,.177-.508v-6.031a.947.947,0,0,0-.186-.528,1.021,1.021,0,0,0-.3-.315Z" transform="translate(-314.726 -173.19)" fill="#e9990d"/>
    <path id="Path_32650" data-name="Path 32650" d="M495.157,268.949a16.83,16.83,0,0,1-2.691.325,5.383,5.383,0,0,1-3.144-.873,3.568,3.568,0,0,1-1.522-3.137,3.682,3.682,0,0,1,1.572-3.208,5.377,5.377,0,0,1,3.153-.9,12.4,12.4,0,0,1,1.778.193v1.33a3.018,3.018,0,0,0-2.047-.69,3.169,3.169,0,0,0-2.244.822,2.946,2.946,0,0,0-.925,2.275,3.243,3.243,0,0,0,1.014,2.457,3.286,3.286,0,0,0,2.332.9,4.78,4.78,0,0,0,1.526-.264v-2.193a.886.886,0,0,0-.187-.508,1.07,1.07,0,0,0-.354-.345h1.738Z" transform="translate(-322.757 -172.793)" fill="#e9990d"/>
    <path id="Path_32651" data-name="Path 32651" d="M522.845,261.751c-.072.027-.171.154-.3.381a1.278,1.278,0,0,0-.192.452v6.051a1.476,1.476,0,0,0,.491.833H520.7a1.025,1.025,0,0,0,.314-.336,1.082,1.082,0,0,0,.187-.508V265.66h-4.116v2.975a.862.862,0,0,0,.177.488,1.3,1.3,0,0,0,.315.345h-2.142a1.169,1.169,0,0,0,.314-.336.988.988,0,0,0,.177-.508v-6.072a1.009,1.009,0,0,0-.191-.477c-.128-.2-.228-.311-.3-.325h2.142a1.053,1.053,0,0,0-.315.315.932.932,0,0,0-.177.518v2.234h4.116v-2.265a1.03,1.03,0,0,0-.171-.467q-.169-.295-.33-.335Z" transform="translate(-341.044 -173.19)" fill="#e9990d"/>
    <path id="Path_32652" data-name="Path 32652" d="M562.985,263.4a2.51,2.51,0,0,1-1.408,2.268,4.62,4.62,0,0,1-2.335.619,8.074,8.074,0,0,1-1.279-.121,3.382,3.382,0,0,1-1.043-.291,15.77,15.77,0,0,1-.376-1.734,3.913,3.913,0,0,0,1.423.873,4.211,4.211,0,0,0,1.47.279,2.523,2.523,0,0,0,1.246-.327,1.287,1.287,0,0,0,.765-1.153q0-.909-1.224-1.576l-2.258-1.165a2.362,2.362,0,0,1-1.223-2.025,2.1,2.1,0,0,1,1.291-2.013,4.777,4.777,0,0,1,2.147-.448,8.636,8.636,0,0,1,1.995.291l.046,1.589a2.814,2.814,0,0,0-1.047-.655,3.1,3.1,0,0,0-1.129-.23,2.463,2.463,0,0,0-1.142.243,1.122,1.122,0,0,0-.624,1.055q0,.849,1.212,1.48,1.14.558,2.269,1.1a2.264,2.264,0,0,1,1.224,1.94" transform="translate(-368.241 -169.774)" fill="#e9990d"/>
    <path id="Path_32653" data-name="Path 32653" d="M587.708,267.568a2.02,2.02,0,0,1-.825,1.431,3.059,3.059,0,0,1-1.483.274,4.552,4.552,0,0,1-3.075-1.005,3.865,3.865,0,0,1-1.257-3.077,3.912,3.912,0,0,1,1.169-2.965,3.992,3.992,0,0,1,2.869-1.076,11.832,11.832,0,0,1,2.023.285l.04,1.381a3.032,3.032,0,0,0-.975-.493,3.719,3.719,0,0,0-1.141-.2,2.513,2.513,0,0,0-2,.863,3.019,3.019,0,0,0-.7,2.041,3.459,3.459,0,0,0,.787,2.274,2.675,2.675,0,0,0,2.136,1,4.69,4.69,0,0,0,2.43-.741" transform="translate(-384.468 -172.793)" fill="#e9990d"/>
    <path id="Path_32654" data-name="Path 32654" d="M612.281,261.751q-.107.041-.3.381a1.277,1.277,0,0,0-.191.452v6.051a1.473,1.473,0,0,0,.491.833H610.14a1.022,1.022,0,0,0,.314-.336,1.082,1.082,0,0,0,.187-.508V265.66h-4.116v2.975a.862.862,0,0,0,.177.488,1.307,1.307,0,0,0,.315.345h-2.142a1.17,1.17,0,0,0,.314-.336.988.988,0,0,0,.177-.508v-6.072a1.009,1.009,0,0,0-.191-.477c-.128-.2-.228-.311-.3-.325h2.142a1.058,1.058,0,0,0-.315.315.932.932,0,0,0-.177.518v2.234h4.116v-2.265a1.031,1.031,0,0,0-.171-.467q-.17-.295-.33-.335Z" transform="translate(-400.221 -173.19)" fill="#e9990d"/>
    <path id="Path_32655" data-name="Path 32655" d="M641.065,265.141a3.916,3.916,0,0,1-1.306,3.015,4.129,4.129,0,0,1-2.888,1.117,4.074,4.074,0,0,1-2.941-1.173,3.88,3.88,0,0,1-1.214-2.909,3.742,3.742,0,0,1,1.356-2.965,4.24,4.24,0,0,1,2.868-1.076,4.125,4.125,0,0,1,2.869,1.076,3.752,3.752,0,0,1,1.257,2.914m-1.287.233a3.786,3.786,0,0,0-.71-2.274,2.585,2.585,0,0,0-2.178-1.117,2.72,2.72,0,0,0-2.119.893,3.164,3.164,0,0,0-.769,2.2,3.639,3.639,0,0,0,.739,2.244,2.788,2.788,0,0,0,4.268.234,3.161,3.161,0,0,0,.769-2.183" transform="translate(-418.642 -172.793)" fill="#e9990d"/>
    <path id="Path_32656" data-name="Path 32656" d="M671.518,265.141a3.916,3.916,0,0,1-1.306,3.015,4.129,4.129,0,0,1-2.888,1.117,4.074,4.074,0,0,1-2.941-1.173,3.88,3.88,0,0,1-1.214-2.909,3.743,3.743,0,0,1,1.356-2.965,4.24,4.24,0,0,1,2.868-1.076,4.125,4.125,0,0,1,2.869,1.076,3.752,3.752,0,0,1,1.257,2.914m-1.287.233a3.786,3.786,0,0,0-.71-2.274,2.585,2.585,0,0,0-2.178-1.117,2.721,2.721,0,0,0-2.119.893,3.164,3.164,0,0,0-.769,2.2,3.64,3.64,0,0,0,.739,2.244,2.788,2.788,0,0,0,4.268.234,3.161,3.161,0,0,0,.769-2.183" transform="translate(-438.791 -172.793)" fill="#e9990d"/>
    <path id="Path_32657" data-name="Path 32657" d="M699.546,267.924l-.579,1.554h-4.676a1.135,1.135,0,0,0,.314-.345.989.989,0,0,0,.177-.508v-6.031a1.1,1.1,0,0,0-.491-.842h2.141a1.078,1.078,0,0,0-.315.315.933.933,0,0,0-.176.518v5.9a8.779,8.779,0,0,0,1.738.173,3.662,3.662,0,0,0,1.866-.731" transform="translate(-459.384 -173.19)" fill="#e9990d"/>
    <path id="Path_32658" data-name="Path 32658" d="M117.111,264.252a2.416,2.416,0,0,1-.985,1.71,3.654,3.654,0,0,1-1.772.328,5.434,5.434,0,0,1-3.672-1.2,4.616,4.616,0,0,1-1.5-3.675,4.67,4.67,0,0,1,1.4-3.541A4.766,4.766,0,0,1,114,256.588a14.13,14.13,0,0,1,2.417.34l.047,1.649a3.612,3.612,0,0,0-1.164-.588,4.416,4.416,0,0,0-1.364-.237,3,3,0,0,0-2.387,1.031,3.6,3.6,0,0,0-.834,2.437,4.134,4.134,0,0,0,.94,2.716,3.2,3.2,0,0,0,2.551,1.2,5.6,5.6,0,0,0,2.9-.886" transform="translate(-72.24 -169.774)" fill="#e9990d"/>
    <path id="Path_32659" data-name="Path 32659" d="M157.4,269.448h-2.328q.4-.214.4-.467a7.487,7.487,0,0,0-.314-.959q-.316-.869-.57-1.467h-2.829q-.8,2.324-.8,2.356a.609.609,0,0,0,.4.538h-2.053a2.2,2.2,0,0,0,.477-.513,2.643,2.643,0,0,0,.4-.655q.245-.66,1.434-3.666a16.681,16.681,0,0,0,.864-2.416q0-.265-.363-.477h1.827q.4.934,1.238,3.188.815,2.172,1.188,3.016.619,1.371,1.021,1.523m-3.133-3.777-1.09-2.945-1.129,2.945Z" transform="translate(-98.794 -173.17)" fill="#e9990d"/>
    <path id="Path_32660" data-name="Path 32660" d="M193.385,261.451l-.374,1.421a.98.98,0,0,0-.31-.279,1.021,1.021,0,0,0-.368-.188h-1.355v5.939a1.078,1.078,0,0,0,.186.487,1.019,1.019,0,0,0,.393.437h-2.23a1.165,1.165,0,0,0,.315-.336,1,1,0,0,0,.177-.508v-6.019H188.5a1.574,1.574,0,0,0-.569.186,2.8,2.8,0,0,0-.471.28l.363-1.421a1.039,1.039,0,0,0,.373.132h4.891a.3.3,0,0,0,.148-.046l.148-.086" transform="translate(-124.036 -172.991)" fill="#e9990d"/>
    <path id="Path_32661" data-name="Path 32661" d="M228.688,261.751c-.072.027-.172.154-.3.381a1.277,1.277,0,0,0-.191.452v6.051a1.472,1.472,0,0,0,.491.833h-2.141a1.017,1.017,0,0,0,.314-.336,1.081,1.081,0,0,0,.187-.508V265.66h-4.116v2.975a.863.863,0,0,0,.177.488,1.318,1.318,0,0,0,.314.345h-2.141a1.174,1.174,0,0,0,.314-.336.988.988,0,0,0,.177-.508v-6.072a1.01,1.01,0,0,0-.191-.477c-.128-.2-.228-.311-.3-.325h2.141a1.065,1.065,0,0,0-.314.315.933.933,0,0,0-.177.518v2.234h4.116v-2.265a1.029,1.029,0,0,0-.171-.467q-.17-.295-.33-.335Z" transform="translate(-146.413 -173.19)" fill="#e9990d"/>
    <path id="Path_32662" data-name="Path 32662" d="M268.213,265.141a3.917,3.917,0,0,1-1.306,3.015,4.131,4.131,0,0,1-2.888,1.117,4.076,4.076,0,0,1-2.942-1.173,3.881,3.881,0,0,1-1.213-2.909,3.742,3.742,0,0,1,1.355-2.965,4.241,4.241,0,0,1,2.868-1.076,4.124,4.124,0,0,1,2.868,1.076,3.752,3.752,0,0,1,1.257,2.914m-1.286.233a3.786,3.786,0,0,0-.71-2.274,2.585,2.585,0,0,0-2.178-1.117,2.72,2.72,0,0,0-2.119.893,3.164,3.164,0,0,0-.769,2.2,3.638,3.638,0,0,0,.739,2.244,2.788,2.788,0,0,0,4.268.234,3.161,3.161,0,0,0,.769-2.183" transform="translate(-171.941 -172.793)" fill="#e9990d"/>
    <path id="Path_32663" data-name="Path 32663" d="M306.981,267.924l-.579,1.554h-4.676a1.131,1.131,0,0,0,.315-.345.99.99,0,0,0,.177-.508v-6.031a1.1,1.1,0,0,0-.491-.842h2.142a1.065,1.065,0,0,0-.315.315.934.934,0,0,0-.176.518v5.9a8.776,8.776,0,0,0,1.738.173,3.663,3.663,0,0,0,1.866-.731" transform="translate(-199.639 -173.19)" fill="#e9990d"/>
    <path id="Path_32664" data-name="Path 32664" d="M334.729,261.751a1.073,1.073,0,0,0-.314.315.93.93,0,0,0-.177.518v6.051a.856.856,0,0,0,.157.472,1.3,1.3,0,0,0,.334.361h-2.141a1.077,1.077,0,0,0,.3-.336.988.988,0,0,0,.177-.508v-6.031a.949.949,0,0,0-.186-.528,1.03,1.03,0,0,0-.3-.315Z" transform="translate(-220.06 -173.19)" fill="#e9990d"/>
    <path id="Path_32665" data-name="Path 32665" d="M362.106,267.568a2.02,2.02,0,0,1-.825,1.431,3.06,3.06,0,0,1-1.483.274,4.552,4.552,0,0,1-3.075-1.005,3.865,3.865,0,0,1-1.257-3.077,3.911,3.911,0,0,1,1.169-2.965,3.991,3.991,0,0,1,2.868-1.076,11.837,11.837,0,0,1,2.023.285l.039,1.381a3.03,3.03,0,0,0-.974-.493,3.721,3.721,0,0,0-1.141-.2,2.512,2.512,0,0,0-2,.863,3.018,3.018,0,0,0-.7,2.041,3.46,3.46,0,0,0,.787,2.274,2.675,2.675,0,0,0,2.136,1,4.69,4.69,0,0,0,2.431-.741" transform="translate(-235.197 -172.793)" fill="#e9990d"/>
    <path id="Path_32666" data-name="Path 32666" d="M32.462,133.521a3.51,3.51,0,0,1,1.028-1.029H26.494a3.369,3.369,0,0,1,.963,1.029,3.081,3.081,0,0,1,.61,1.724v19.7a3.234,3.234,0,0,1-.578,1.658,3.508,3.508,0,0,1-.995,1.095h6.995a4.211,4.211,0,0,1-1.091-1.178,2.79,2.79,0,0,1-.513-1.542V135.212a3.042,3.042,0,0,1,.577-1.691m21.457,11.641q-3.088-1.493-6.208-3.018Q44.4,140.42,44.4,138.1a3.07,3.07,0,0,1,1.705-2.885,6.754,6.754,0,0,1,3.122-.663,8.47,8.47,0,0,1,3.09.63,7.671,7.671,0,0,1,2.864,1.79l-.129-4.345a23.6,23.6,0,0,0-5.454-.8,13.063,13.063,0,0,0-5.872,1.228,5.748,5.748,0,0,0-3.53,5.505A6.46,6.46,0,0,0,43.54,144.1l6.176,3.184q3.344,1.825,3.345,4.311a3.514,3.514,0,0,1-2.09,3.151,6.907,6.907,0,0,1-3.409.9,11.516,11.516,0,0,1-4.021-.763,10.673,10.673,0,0,1-3.892-2.388,43.235,43.235,0,0,0,1.027,4.743,9.281,9.281,0,0,0,2.856.8,21.969,21.969,0,0,0,3.5.332,12.626,12.626,0,0,0,6.385-1.691,6.864,6.864,0,0,0,3.851-6.2q0-3.184-3.346-5.307m63.057-9.817a13.469,13.469,0,0,0-9.369-3.516,13.846,13.846,0,0,0-9.369,3.516,12.222,12.222,0,0,0-4.428,9.684,12.682,12.682,0,0,0,3.962,9.5,13.316,13.316,0,0,0,9.61,3.831,13.488,13.488,0,0,0,9.433-3.648,12.8,12.8,0,0,0,4.268-9.85,12.258,12.258,0,0,0-4.107-9.518m-2.608,17.411a9.106,9.106,0,0,1-13.941-.763,11.888,11.888,0,0,1-2.414-7.329,10.339,10.339,0,0,1,2.511-7.2,8.89,8.89,0,0,1,6.922-2.919,8.446,8.446,0,0,1,7.115,3.648,12.383,12.383,0,0,1,2.318,7.429,10.32,10.32,0,0,1-2.512,7.131M86.254,133.736q.626-1.11.979-1.244H80.238q.523.133,1.08,1.095a3.368,3.368,0,0,1,.556,1.526v7.4H68.43v-7.3a3.035,3.035,0,0,1,.578-1.691,3.509,3.509,0,0,1,1.027-1.029H63.04q.352.067.978,1.062a3.3,3.3,0,0,1,.626,1.558v19.834a3.232,3.232,0,0,1-.578,1.658A3.809,3.809,0,0,1,63.04,157.7h6.995a4.321,4.321,0,0,1-1.027-1.128,2.8,2.8,0,0,1-.578-1.593v-9.718H81.874v9.685a3.526,3.526,0,0,1-.609,1.658,3.316,3.316,0,0,1-1.027,1.095h6.995a4.8,4.8,0,0,1-1.6-2.72V135.212a4.182,4.182,0,0,1,.626-1.476m57.4.73a7.281,7.281,0,0,0-5.055-2.007H128.366a2.676,2.676,0,0,1,1.187,1.46,3.9,3.9,0,0,1,.417,1.492v19.535a3.128,3.128,0,0,1-.609,1.658,3.5,3.5,0,0,1-1,1.095h7.284a3.813,3.813,0,0,1-1.893-3.317l.1-19.071h2.384q5.412,0,5.412,4.677a5.338,5.338,0,0,1-1.887,4.1,7.182,7.182,0,0,1-4.627,1.841,7.489,7.489,0,0,0,2.536.531,9.035,9.035,0,0,0,5.39-1.725,6.5,6.5,0,0,0,2.792-5.506,6.241,6.241,0,0,0-2.2-4.759M14.3,143.072q3.818-1.791,3.818-5.041a5.005,5.005,0,0,0-2.086-4.046,6.755,6.755,0,0,0-4.3-1.526H1.5a3.365,3.365,0,0,1,.963,1.028,3.236,3.236,0,0,1,.609,1.758v19.7a3.233,3.233,0,0,1-.577,1.658,3.955,3.955,0,0,1-1,1.127h9.947a9.231,9.231,0,0,0,5.743-1.956,7.024,7.024,0,0,0,3.112-5.838,6.557,6.557,0,0,0-1.444-4.245,7.782,7.782,0,0,0-4.556-2.62m-7.38-8.225H9.733a4.587,4.587,0,0,1,2.938.962,3.359,3.359,0,0,1,1.342,2.819,3.6,3.6,0,0,1-1.757,3.085,5.377,5.377,0,0,1-2.971.962H6.922Zm7.412,19.236a6.339,6.339,0,0,1-3.594.962,17.152,17.152,0,0,1-1.733-.116q-1.091-.116-1.379-.116-.577,0-.706.232V145.1a8.562,8.562,0,0,0,1.54,0H9.713a8.03,8.03,0,0,1,4.268,1.062,4.474,4.474,0,0,1,2.214,4.079,4.328,4.328,0,0,1-1.861,3.847m258.272-14.72q4.427-6.533,4.588-6.832h-6.386a2.682,2.682,0,0,1,1.284,1.99q0,.929-2.631,5.042-1.348,2.056-2.695,4.079-1.7-2.885-3.37-5.771-3.336-5.373-4.491-5.339h-4.011q.962-.066,4.941,6.434,2.984,4.844,4.491,7.794a3.663,3.663,0,0,1,.257,1.592q0,.7-.191,2.587,0,3.749-.065,4.212a3.346,3.346,0,0,1-1.539,2.587h7.283q-1.99-1.326-1.989-4.775,0-.465.048-1.227t.048-1.028a20.065,20.065,0,0,1-.256-2.422,3.373,3.373,0,0,1,.289-1.526,62.081,62.081,0,0,1,4.4-7.4m-71.23-3.98a13.472,13.472,0,0,0-9.369-3.516,13.847,13.847,0,0,0-9.369,3.516,12.226,12.226,0,0,0-4.429,9.684,12.681,12.681,0,0,0,3.964,9.5,13.315,13.315,0,0,0,9.61,3.831,13.491,13.491,0,0,0,9.433-3.648,12.8,12.8,0,0,0,4.267-9.85,12.258,12.258,0,0,0-4.107-9.519M198.768,152.8a9.105,9.105,0,0,1-13.941-.763,11.89,11.89,0,0,1-2.414-7.329,10.338,10.338,0,0,1,2.511-7.2,8.894,8.894,0,0,1,6.922-2.919,8.443,8.443,0,0,1,7.115,3.649,12.38,12.38,0,0,1,2.319,7.429,10.321,10.321,0,0,1-2.511,7.13m-.406-10.95s-2.847-.1-5.653-.247c-.214-1.787-.51-3.958-.51-3.958a1.611,1.611,0,0,0-.52-.137,1.422,1.422,0,0,0-.5.137s-.3,2.17-.51,3.958c-2.807.144-5.653.247-5.653.247a1.3,1.3,0,0,0-.242.5,1.62,1.62,0,0,0-.022.484s3.611.26,5.813.4a90.146,90.146,0,0,0,.705,9.7,1,1,0,0,0,.426.137.732.732,0,0,0,.411-.137,90.1,90.1,0,0,0,.706-9.7c2.2-.145,5.906-.4,5.906-.4a2.877,2.877,0,0,0-.055-.514.863.863,0,0,0-.3-.468m47.449,13.106a31.751,31.751,0,0,1-5.485-.6v-9.087h4.312a3.338,3.338,0,0,1,.989.365,2.833,2.833,0,0,1,.956.7v-3.947a29.575,29.575,0,0,1-6.257,0v-7.164q-.287-.033,3.69-.033,3.4,0,4.62,1.526v-4.246H234.969a3.86,3.86,0,0,1,1.6,2.819v19.7a3.234,3.234,0,0,1-.578,1.658,3.711,3.711,0,0,1-1.027,1.127H250.4l1.6-5.074a11.263,11.263,0,0,1-2.937,1.808,9.717,9.717,0,0,1-3.259.448m-27.816-.431V135.251a3.04,3.04,0,0,1,.578-1.691,3.5,3.5,0,0,1,1.027-1.028h-7a3.6,3.6,0,0,1,1.6,2.753v19.7a3.237,3.237,0,0,1-.578,1.658,3.712,3.712,0,0,1-1.027,1.127h15.273l1.893-5.074a11.965,11.965,0,0,1-6.1,2.388,28.6,28.6,0,0,1-5.68-.564m-57.721-19.236v19.7a2.976,2.976,0,0,1-.562,1.592,3.788,3.788,0,0,1-1.043,1.161h6.995q-.448-.033-1.026-1.045a3.542,3.542,0,0,1-.577-1.509v-9.916h4.427a2.779,2.779,0,0,1,.883.365,3.462,3.462,0,0,1,.915.7v-3.947a29.266,29.266,0,0,1-6.224,0v-7.2a12.933,12.933,0,0,0,1.853,0h1.727q3.642,0,4.858,1.526v-4.246H158.669a3.859,3.859,0,0,1,1.6,2.819" transform="translate(-0.992 -87.226)" fill="#e9990d"/>
    <path id="Path_32667" data-name="Path 32667" d="M.307,39.57h276.2c0-1.819-.186-2.669-.317-4.33l-.048-.017.048.006c-.386-4.916-.927-4.253-1.253-4.441-19.9,1.307-108.989,7.427-128.923,7.9,1.074-13.568,2.447-24.9,4.058-38.411C145.394.054,143.055,0,138.373,0V.052c0-.018-.007-.036-.01-.052-4.681,0-7.023.054-11.7.276,1.613,13.526,2.989,24.872,4.062,38.453-19.947-.358-108.975-6.369-128.888-7.6-.8-.3-1.194,4.1-1.212,4.11-.13,1.667-.315,2.689-.315,4.33" transform="translate(-0.203)" fill="#e9990d"/>
    <path id="Path_32668" data-name="Path 32668" d="M277.09,227.607a27.9,27.9,0,0,0-.364-7.967H.326A20.958,20.958,0,0,0,.4,227.266c20.358-3.861,107.761-6.575,131.117-7.568.554,29.241-1.547,36.48-5.116,65.508,4.819.235,7.228.29,12.047.29,0-.017.008-.031.01-.047,0,.019,0,.031,0,.047,4.819,0,7.228-.057,12.049-.295-3.576-29.035-5.674-36.248-5.117-65.525,21.121,1.054,110.926,3.9,131.7,7.93" transform="translate(0 -145.327)" fill="#e9990d"/>
  </g>
</svg>
